<?xml version="1.0" encoding="utf-8"?>
<!-- Generator: Adobe Illustrator 21.0.0, SVG Export Plug-In . SVG Version: 6.00 Build 0)  -->
<svg version="1.1" id="Layer_1" xmlns="http://www.w3.org/2000/svg" xmlns:xlink="http://www.w3.org/1999/xlink" x="0px" y="0px"
	 viewBox="0 0 60 60" style="enable-background:new 0 0 60 60;" xml:space="preserve">
<style type="text/css">
	.st0{display:none;}
	.st1{display:inline;fill:#F80140;}
	.st2{fill:#F80140;}
</style>
<g id="alternatives" class="st0">
	<rect x="-636.4" y="-716.3" class="st1" width="278.2" height="640.3"/>
	<rect x="-94.2" y="-716.3" class="st1" width="278.2" height="640.3"/>
</g>
<polygon class="st2" points="56.6,6 48.6,14 51.3,16.7 56.6,11.4 56.6,11.4 56.6,11.4 56.6,54 56.6,16.7 56.6,16.7 56.6,54 40.7,54 
	40.7,48.6 35.3,54 30,59.3 24.7,54 19.3,48.6 19.3,27.3 30,38 40.7,27.3 40.7,27.3 40.7,27.3 43.3,24.7 40.7,22 40.7,22 40.7,22 
	30,32.7 19.3,22 16.7,24.7 19.3,27.3 19.3,54 3.4,54 3.4,11.4 3.4,11.4 3.4,11.4 3.4,11.4 8.7,16.7 11.4,14 3.4,6 3.4,0.7 14,11.4 
	19.3,6 19.3,6 30,16.7 40.7,6 40.7,11.4 30,22 19.3,11.4 14,16.7 11.4,19.3 14,22 19.3,16.7 19.3,16.7 30,27.3 40.7,16.7 40.7,16.7 
	40.7,16.7 46,22 48.6,19.3 40.7,11.4 40.7,6 46,11.4 56.6,0.7 56.6,0.7 56.6,0.7 "/>
</svg>
