<?xml version="1.0" encoding="utf-8"?>
<!-- Generator: Adobe Illustrator 21.0.0, SVG Export Plug-In . SVG Version: 6.00 Build 0)  -->
<svg version="1.1" id="Layer_1" xmlns="http://www.w3.org/2000/svg" xmlns:xlink="http://www.w3.org/1999/xlink" x="0px" y="0px"
	 viewBox="0 0 227.6 53.7" style="enable-background:new 0 0 227.6 53.7;" xml:space="preserve">
<style type="text/css">
	.st0{fill:#FFFFFF;}
	.st1{font-family:'Phosphate-Solid';}
	.st2{font-size:34.0149px;}
	.st3{letter-spacing:-1;}
	.st4{font-family:'Montserrat-Light';}
	.st5{font-size:20.6958px;}
	.st6{fill:#DD0F82;}
</style>
<g>
	<g>
		<g>
			<text transform="matrix(1 0 0 1 59.7098 44.428)" class="st0 st1 st2 st3">MONROY</text>
		</g>
		<text transform="matrix(1 0 0 1 62.5633 17.5911)" class="st0 st4 st5">ALEXANDER</text>
	</g>
	<g>
		<polygon class="st6" points="44.6,4.8 38,11.5 40.2,13.7 44.6,9.3 44.6,9.3 44.6,9.2 44.6,45 44.6,13.7 44.6,13.7 44.6,45 
			31.3,45 31.3,40.5 26.8,45 22.3,49.4 17.9,45 13.4,40.5 13.4,22.6 22.3,31.6 31.3,22.6 31.3,22.6 31.3,22.6 33.5,20.4 31.3,18.2 
			31.3,18.2 31.3,18.2 22.3,27.1 13.4,18.2 11.2,20.4 13.4,22.6 13.4,45 0,45 0,9.2 0,9.3 0,9.3 0,9.2 4.5,13.7 6.7,11.5 0,4.8 
			0,0.3 8.9,9.2 13.4,4.8 13.4,4.8 22.3,13.7 31.3,4.8 31.3,9.3 22.3,18.2 13.4,9.3 8.9,13.7 6.7,15.9 8.9,18.2 13.4,13.7 
			13.4,13.7 22.3,22.6 31.3,13.7 31.3,13.7 31.3,13.7 35.7,18.2 38,15.9 31.3,9.3 31.3,4.8 35.7,9.2 44.6,0.3 44.6,0.3 44.6,0.3 		
			"/>
	</g>
</g>
</svg>
